<svg width="24" height="24" viewBox="0 0 24 24" fill="none" xmlns="http://www.w3.org/2000/svg">
<circle cx="12.0183" cy="11.9661" r="10.5725" fill="#C3E2E6" stroke="#C3E2E6" stroke-width="1.4" stroke-linecap="round" stroke-linejoin="round"/>
<circle cx="12.0184" cy="11.9661" r="6.16732" fill="#C3E2E6" stroke="white" stroke-linecap="round" stroke-linejoin="round"/>
<path fill-rule="evenodd" clip-rule="evenodd" d="M12.0389 5.79878V1.39355V5.79878Z" fill="white"/>
<path d="M12.0389 5.79878V1.39355" stroke="white" stroke-linecap="round" stroke-linejoin="round"/>
<path fill-rule="evenodd" clip-rule="evenodd" d="M7.65722 7.60498L4.54053 4.48828L7.65722 7.60498Z" fill="#019EB2"/>
<path d="M7.65722 7.60498L4.54053 4.48828" stroke="white" stroke-linecap="round" stroke-linejoin="round"/>
<path fill-rule="evenodd" clip-rule="evenodd" d="M5.85103 11.9867H1.4458H5.85103Z" fill="#019EB2"/>
<path d="M5.85103 11.9867H1.4458" stroke="white" stroke-linecap="round" stroke-linejoin="round"/>
<path fill-rule="evenodd" clip-rule="evenodd" d="M7.65722 16.3271L4.54053 19.4438L7.65722 16.3271Z" fill="#019EB2"/>
<path d="M7.65722 16.3271L4.54053 19.4438" stroke="white" stroke-linecap="round" stroke-linejoin="round"/>
<path fill-rule="evenodd" clip-rule="evenodd" d="M12.0389 18.1333V22.5385V18.1333Z" fill="#019EB2"/>
<path d="M12.0389 18.1333V22.5385" stroke="white" stroke-linecap="round" stroke-linejoin="round"/>
<path fill-rule="evenodd" clip-rule="evenodd" d="M16.3794 16.3271L19.4961 19.4438L16.3794 16.3271Z" fill="#019EB2"/>
<path d="M16.3794 16.3271L19.4961 19.4438" stroke="white" stroke-linecap="round" stroke-linejoin="round"/>
<path fill-rule="evenodd" clip-rule="evenodd" d="M18.1855 11.9867H22.5908H18.1855Z" fill="#019EB2"/>
<path d="M18.1855 11.9867H22.5908" stroke="white" stroke-linecap="round" stroke-linejoin="round"/>
<path fill-rule="evenodd" clip-rule="evenodd" d="M16.3794 7.60498L19.4961 4.48828L16.3794 7.60498Z" fill="#019EB2"/>
<path d="M16.3794 7.60498L19.4961 4.48828" stroke="white" stroke-linecap="round" stroke-linejoin="round"/>
</svg>
