<svg width="25" height="24" viewBox="0 0 25 24" fill="none" xmlns="http://www.w3.org/2000/svg">
<path fill-rule="evenodd" clip-rule="evenodd" d="M14.419 1.61213L23.4997 8.27954C23.8172 8.51211 23.9988 8.85771 24 9.22721V21.7719C24 22.4457 23.3926 23 22.6469 23H16.5586C15.8129 23 15.2056 22.4457 15.2056 21.7719V13.8319H9.79444V21.7719C9.79444 22.4457 9.18705 23 8.44135 23H2.35308C1.60738 23 1 22.4457 1 21.7719V9.22721C1 8.85771 1.18161 8.51211 1.50034 8.27845L10.5798 1.61213C11.6924 0.795957 13.3064 0.795957 14.419 1.61213ZM16.5574 21.7785H22.6457H22.6469V9.22721L13.5662 2.56089C12.9492 2.1077 12.0508 2.10662 11.4338 2.56089L2.35308 9.22721V21.7785H8.44015V13.8265C8.44015 13.1527 9.04753 12.6104 9.79323 12.6104H15.2044C15.9501 12.6104 16.5574 13.1527 16.5574 13.8265V21.7785Z" fill="#71717A"/>
<path d="M23.4997 8.27954L23.3221 8.52135L23.3224 8.52156L23.4997 8.27954ZM14.419 1.61213L14.5965 1.37031L14.5964 1.37024L14.419 1.61213ZM24 9.22721H24.3L24.3 9.22623L24 9.22721ZM15.2056 13.8319H15.5056V13.5319H15.2056V13.8319ZM9.79444 13.8319V13.5319H9.49444V13.8319H9.79444ZM1.50034 8.27845L1.67771 8.5204L1.67789 8.52027L1.50034 8.27845ZM10.5798 1.61213L10.4024 1.37024L10.4023 1.37031L10.5798 1.61213ZM16.5574 21.7785H16.2574V22.0785H16.5574V21.7785ZM22.6469 21.7785V22.0785H22.9469V21.7785H22.6469ZM22.6469 9.22721H22.9469V9.07529L22.8244 8.98538L22.6469 9.22721ZM13.5662 2.56089L13.3886 2.80268L13.3887 2.80272L13.5662 2.56089ZM11.4338 2.56089L11.6113 2.80272L11.6116 2.80247L11.4338 2.56089ZM2.35308 9.22721L2.17555 8.98538L2.05308 9.07529V9.22721H2.35308ZM2.35308 21.7785H2.05308V22.0785H2.35308V21.7785ZM8.44015 21.7785V22.0785H8.74015V21.7785H8.44015ZM23.4997 8.27954L23.6772 8.03772L14.5965 1.37031L14.419 1.61213L14.2414 1.85395L23.3221 8.52135L23.4997 8.27954ZM24 9.22721L24.3 9.22623C24.2985 8.75513 24.0661 8.32254 23.6769 8.03751L23.4997 8.27954L23.3224 8.52156C23.5683 8.70168 23.6991 8.96029 23.7 9.22819L24 9.22721ZM24 21.7719H24.3V9.22721H24H23.7V21.7719H24ZM22.6469 23V23.3C23.5308 23.3 24.3 22.6377 24.3 21.7719H24H23.7C23.7 22.2538 23.2545 22.7 22.6469 22.7V23ZM16.5586 23V23.3H22.6469V23V22.7H16.5586V23ZM15.2056 21.7719H14.9056C14.9056 22.6377 15.6748 23.3 16.5586 23.3V23V22.7C15.9511 22.7 15.5056 22.2538 15.5056 21.7719H15.2056ZM15.2056 13.8319H14.9056V21.7719H15.2056H15.5056V13.8319H15.2056ZM9.79444 13.8319V14.1319H15.2056V13.8319V13.5319H9.79444V13.8319ZM9.79444 21.7719H10.0944V13.8319H9.79444H9.49444V21.7719H9.79444ZM8.44135 23V23.3C9.3252 23.3 10.0944 22.6377 10.0944 21.7719H9.79444H9.49444C9.49444 22.2538 9.0489 22.7 8.44135 22.7V23ZM2.35308 23V23.3H8.44135V23V22.7H2.35308V23ZM1 21.7719H0.7C0.7 22.6377 1.46923 23.3 2.35308 23.3V23V22.7C1.74554 22.7 1.3 22.2538 1.3 21.7719H1ZM1 9.22721H0.7V21.7719H1H1.3V9.22721H1ZM1.50034 8.27845L1.32297 8.0365C0.932964 8.32241 0.7 8.75515 0.7 9.22721H1H1.3C1.3 8.96026 1.43026 8.7018 1.67771 8.5204L1.50034 8.27845ZM10.5798 1.61213L10.4023 1.37031L1.32279 8.03663L1.50034 8.27845L1.67789 8.52027L10.7574 1.85395L10.5798 1.61213ZM14.419 1.61213L14.5964 1.37024C13.3783 0.476586 11.6205 0.476586 10.4024 1.37024L10.5798 1.61213L10.7573 1.85402C11.7642 1.11533 13.2346 1.11533 14.2415 1.85402L14.419 1.61213ZM22.6457 21.7785V21.4785H16.5574V21.7785V22.0785H22.6457V21.7785ZM22.6469 21.7785V21.4785H22.6457V21.7785V22.0785H22.6469V21.7785ZM22.6469 9.22721H22.3469V21.7785H22.6469H22.9469V9.22721H22.6469ZM13.5662 2.56089L13.3887 2.80272L22.4694 9.46904L22.6469 9.22721L22.8244 8.98538L13.7438 2.31906L13.5662 2.56089ZM11.4338 2.56089L11.6116 2.80247C12.1226 2.42629 12.877 2.42691 13.3886 2.80268L13.5662 2.56089L13.7438 2.3191C13.0214 1.7885 11.979 1.78695 11.2559 2.31931L11.4338 2.56089ZM2.35308 9.22721L2.53062 9.46904L11.6113 2.80272L11.4338 2.56089L11.2562 2.31906L2.17555 8.98538L2.35308 9.22721ZM2.35308 21.7785H2.65308V9.22721H2.35308H2.05308V21.7785H2.35308ZM8.44015 21.7785V21.4785H2.35308V21.7785V22.0785H8.44015V21.7785ZM8.44015 13.8265H8.14015V21.7785H8.44015H8.74015V13.8265H8.44015ZM9.79323 12.6104V12.3104C8.91337 12.3104 8.14015 12.9571 8.14015 13.8265H8.44015H8.74015C8.74015 13.3482 9.1817 12.9104 9.79323 12.9104V12.6104ZM15.2044 12.6104V12.3104H9.79323V12.6104V12.9104H15.2044V12.6104ZM16.5574 13.8265H16.8574C16.8574 12.9571 16.0842 12.3104 15.2044 12.3104V12.6104V12.9104C15.8159 12.9104 16.2574 13.3482 16.2574 13.8265H16.5574ZM16.5574 21.7785H16.8574V13.8265H16.5574H16.2574V21.7785H16.5574Z" fill="#71717A"/>
</svg>
